Coordinates
version=1
nRows=16
nColumns=40
inDegrees=yes

Units are S.I. units (second, meters, Newtons, ...)
Angles are in degrees.

endheader
time	pelvis_tilt	pelvis_list	pelvis_rotation	pelvis_tx	pelvis_ty	pelvis_tz	hip_flexion_r	hip_adduction_r	hip_rotation_r	knee_angle_r	knee_angle_r_beta	ankle_angle_r	subtalar_angle_r	mtp_angle_r	hip_flexion_l	hip_adduction_l	hip_rotation_l	knee_angle_l	knee_angle_l_beta	ankle_angle_l	subtalar_angle_l	mtp_angle_l	lumbar_extension	lumbar_bending	lumbar_rotation	arm_flex_r	arm_add_r	arm_rot_r	elbow_flex_r	pro_sup_r	wrist_flex_r	wrist_dev_r	arm_flex_l	arm_add_l	arm_rot_l	elbow_flex_l	pro_sup_l	wrist_flex_l	wrist_dev_l
      7.04750000	     -2.68741058	     -7.50329938	      0.41219448	      1.04910308	      0.93032614	      0.53557912	      8.21525497	      6.08252234	    -14.71007883	     14.32356425	     14.32356425	     10.51937877	      0.14673947	     -5.45846975	     34.58041934	    -16.99636850	     -1.31884464	     54.21785332	     54.21785332	     12.24430281	    -19.50756500	     22.50460831	    -11.18370844	      6.85303841	      2.18151970	     14.60169534	    -14.12292270	     -5.93138918	     68.97694475	     44.90009429	      0.00000000	      0.00000000	     11.43982212	     -6.78851386	     -2.82230116	     34.39899281	     46.94410264	      0.00000000	      0.00000000
      7.05871429	     -2.81635228	     -7.42707703	      0.70010889	      1.04761910	      0.93031909	      0.53502965	      7.41554957	      6.04997778	    -15.01968913	     13.54040376	     13.54040376	     10.63750432	      0.67669575	     -5.92873372	     35.26756843	    -16.35266764	     -1.16812949	     50.84548839	     50.84548839	     11.55899572	    -19.43182386	     21.28713200	    -11.15707211	      6.84469660	      2.51830349	     16.22255866	    -14.87463284	     -5.71298985	     72.99796146	     44.79675630	      0.00000000	      0.00000000	     11.27566718	     -6.35279259	     -2.72552488	     30.43792121	     46.86666311	      0.00000000	      0.00000000
      7.06992857	     -2.99492075	     -7.36541502	      0.94225349	      1.04613716	      0.93015792	      0.53440731	      6.70661994	      6.04043118	    -15.19479866	     12.82984889	     12.82984889	     10.80612879	      1.02186389	     -6.01380464	     35.88566633	    -15.58026310	     -0.70334810	     47.36763283	     47.36763283	     11.08346131	    -19.27891886	     20.95981198	    -11.09976459	      6.82136290	      2.19800740	     18.80160119	    -14.75925344	     -5.93491993	     75.44580352	     44.74393346	      0.00000000	      0.00000000	      9.89429991	     -6.37673015	     -2.62889523	     28.87610016	     46.81288570	      0.00000000	      0.00000000
      7.08114286	     -3.17212884	     -7.28356878	      1.12749007	      1.04481121	      0.92988369	      0.53370070	      5.95851103	      5.99947995	    -15.45874423	     12.08327755	     12.08327755	     11.02657668	      1.58205222	     -6.19910745	     36.29356919	    -14.75469154	     -0.11073510	     43.68291323	     43.68291323	     10.33106385	    -19.02114698	     20.17874063	    -10.99986766	      6.78759065	      2.04994338	     21.22044654	    -14.80201403	     -5.86824767	     78.06857664	     44.67563573	      0.00000000	      0.00000000	      8.59610624	     -6.39434979	     -2.48169973	     27.30635748	     46.75390669	      0.00000000	      0.00000000
      7.09235714	     -3.36407152	     -7.26481701	      1.23778404	      1.04367946	      0.92937554	      0.53295224	      5.19398479	      5.98375512	    -15.98930570	     11.31142504	     11.31142504	     11.16509766	      2.71726345	     -6.85938099	     36.45455975	    -14.10084737	      0.41073203	     39.70321799	     39.70321799	      8.45932688	    -18.54248807	     16.22523614	    -10.91471400	      6.85520842	      2.57612658	     23.01895400	    -15.77714714	     -5.33838428	     81.78819874	     44.58688917	      0.00000000	      0.00000000	      7.89572622	     -6.17334880	     -1.97273345	     25.02908563	     46.61185270	      0.00000000	      0.00000000
      7.10357143	     -3.52124704	     -7.24684412	      1.28893746	      1.04276342	      0.92886113	      0.53226409	      4.35693223	      6.02407127	    -16.20025193	     10.48945949	     10.48945949	     11.33700164	      3.46005951	     -7.16218315	     36.46028087	    -13.53711092	      0.93225875	     35.77799393	     35.77799393	      7.15323294	    -17.55402005	     13.56814167	    -10.83461970	      6.88054571	      2.68844793	     25.36853662	    -15.88615091	     -5.47046742	     84.36717071	     44.56810062	      0.00000000	      0.00000000	      6.47520343	     -6.23359352	     -1.40079169	     24.10599239	     46.42946122	      0.00000000	      0.00000000
      7.11478571	     -3.65068793	     -7.21917679	      1.26820762	      1.04209803	      0.92828333	      0.53165442	      3.50706943	      6.06795146	    -16.21368263	      9.74033666	      9.74033666	     11.57859967	      4.00507975	     -7.22164306	     36.42479219	    -13.11625205	      1.30640774	     32.18560557	     32.18560557	      7.03502877	    -15.72677925	     13.39337793	    -10.74147076	      6.85214026	      2.64308637	     27.92975737	    -15.68839505	     -5.51383073	     86.43662390	     44.52417384	      0.00000000	      0.00000000	      4.87547238	     -6.34579366	     -1.22276420	     23.38880555	     46.35554180	      0.00000000	      0.00000000
      7.12600000	     -3.79777405	     -7.30333008	      1.25898741	      1.04169240	      0.92745699	      0.53090686	      2.58211120	      6.22312675	    -16.46604306	      8.84518173	      8.84518173	     11.83224818	      4.94502169	     -7.37390113	     36.42355569	    -12.94598388	      1.37520226	     28.88827073	     28.88827073	      6.84451476	    -13.44738435	     12.70496361	    -10.63073314	      7.04846411	      2.70793522	     30.40873285	    -15.76160240	     -5.25294140	     88.73114605	     44.46918515	      0.00000000	      0.00000000	      3.24959155	     -6.40893756	     -0.90453845	     23.02487769	     46.24448080	      0.00000000	      0.00000000
      7.13721429	     -4.07711568	     -7.35351939	      1.15046802	      1.04132900	      0.92629688	      0.53021623	      2.01651878	      6.29687015	    -16.43048496	      8.37927384	      8.37927384	     12.17665455	      5.35233107	     -7.50527885	     36.48305934	    -12.77312755	      1.41180357	     25.84169182	     25.84169182	      6.81969750	    -11.56665485	     12.82751151	    -10.31923928	      7.09032603	      3.11675046	     32.76508697	    -16.03463565	     -5.37326611	     90.15544500	     44.44259722	      0.00000000	      0.00000000	      1.81557187	     -6.38944631	     -0.79505488	     22.64325177	     46.18862452	      0.00000000	      0.00000000
      7.14842857	     -3.99164669	     -7.29423790	      1.02841621	      1.04163182	      0.92566245	      0.52944011	      0.78237684	      6.29637805	    -16.47966538	      7.48048244	      7.48048244	     12.46345703	      6.32128262	     -7.57807541	     36.01306200	    -12.66408060	      0.85392425	     23.10288206	     23.10288206	      6.86502805	     -9.43280207	     12.69363563	    -10.41047607	      7.08227760	      3.01449944	     35.01364376	    -15.69639511	     -4.98053238	     92.49832339	     44.37536406	      0.00000000	      0.00000000	     -0.03004122	     -6.60292852	     -0.52440730	     22.43673192	     46.08237956	      0.00000000	      0.00000000
      7.15964286	     -4.07272360	     -7.37573742	      0.94397752	      1.04195525	      0.92446803	      0.52846571	     -0.17403539	      6.40710572	    -16.61715936	      6.76808823	      6.76808823	     12.76591194	      7.19317764	     -7.61812328	     35.89272467	    -12.64720705	      0.34281718	     21.02651493	     21.02651493	      6.91274169	     -7.81244515	     12.48389395	    -10.27142965	      7.22552214	      3.06891992	     37.27172735	    -15.70618763	     -4.54491613	     94.58290633	     44.32152318	      0.00000000	      0.00000000	     -1.85562233	     -6.70058284	     -0.07079453	     22.80732542	     45.92848585	      0.00000000	      0.00000000
      7.17085714	     -4.14796575	     -7.39653566	      0.80055041	      1.04247252	      0.92319334	      0.52747002	     -1.02726217	      6.41784841	    -16.59749961	      6.29421837	      6.29421837	     13.19940547	      7.79950848	     -7.60096251	     35.73348572	    -12.58893861	     -0.27156196	     19.42694716	     19.42694716	      6.94956842	     -6.87819323	     12.41070131	    -10.13738492	      7.27043241	      3.13358337	     39.35667652	    -15.62253715	     -4.15318505	     96.36111629	     44.28112921	      0.00000000	      0.00000000	     -3.78681381	     -6.86874093	      0.52216870	     23.30700488	     45.74584374	      0.00000000	      0.00000000
      7.18207143	     -4.32396089	     -7.45547654	      0.65295654	      1.04302354	      0.92160261	      0.52634857	     -1.62005874	      6.42185874	    -16.45661147	      6.11720275	      6.11720275	     13.69279315	      7.98431572	     -7.66590432	     35.74232253	    -12.54236510	     -0.83123238	     18.39561938	     18.39561938	      6.98345333	     -6.61776979	     12.51078687	     -9.83399485	      7.32419447	      3.47276968	     41.38738310	    -15.71227865	     -4.20219839	     97.47777600	     44.26259295	      0.00000000	      0.00000000	     -5.23930463	     -6.88155165	      0.74313594	     23.20275646	     45.66638099	      0.00000000	      0.00000000
      7.19328571	     -4.31931119	     -7.42106082	      0.51488485	      1.04388489	      0.92023143	      0.52506193	     -2.43534008	      6.31313581	    -16.27096860	      5.93935703	      5.93935703	     14.24167658	      8.26700142	     -7.55479707	     35.47947040	    -12.43362337	     -1.59111756	     17.74760042	     17.74760042	      6.88737489	     -6.68299860	     12.46332413	     -9.75223601	      7.32625992	      3.31549949	     43.23834589	    -15.29361423	     -3.77302884	     99.25807357	     44.21371701	      0.00000000	      0.00000000	     -7.10491753	     -7.01747727	      1.22914843	     23.48060439	     45.51719671	      0.00000000	      0.00000000
      7.20450000	     -4.42996722	     -7.44513789	      0.37091178	      1.04491093	      0.91848234	      0.52360871	     -2.99727238	      6.21067716	    -16.11746835	      6.05504175	      6.05504175	     15.18643971	      8.47494731	     -6.50144825	     35.35965264	    -12.34526216	     -2.15913236	     17.54013067	     17.54013067	      6.25679415	     -7.50780161	     11.17343736	     -9.50501188	      7.38977495	      3.13925475	     45.09041666	    -15.35720444	     -2.68164192	    100.57572691	     44.22046551	      0.00000000	      0.00000000	     -9.97012120	     -7.62497933	      4.02937637	     26.67624212	     44.87904467	      0.00000000	      0.00000000
      7.21571429	     -4.56352620	     -7.36122153	      0.23274838	      1.04596573	      0.91668850	      0.52203125	     -3.51593159	      5.98259808	    -15.90616516	      6.15894997	      6.15894997	     15.72326927	      8.40939337	     -6.58739950	     35.31112161	    -12.20354361	     -2.89690190	     17.83350641	     17.83350641	      6.01913969	     -8.16846504	     11.17004373	     -9.17209345	      7.29893801	      3.32494486	     46.61323202	    -15.23090955	     -2.86040893	    101.41899728	     44.21151633	      0.00000000	      0.00000000	    -11.20093087	     -7.61230635	      4.29630512	     26.19687069	     44.81566354	      0.00000000	      0.00000000
